<?xml version="1.0" standalone="no"?>
<!DOCTYPE svg PUBLIC "-//W3C//DTD SVG 20010904//EN"
 "http://www.w3.org/TR/2001/REC-SVG-20010904/DTD/svg10.dtd">
<svg version="1.0" xmlns="http://www.w3.org/2000/svg"
 width="580.000000pt" height="578.000000pt" viewBox="0 0 580.000000 578.000000"
 preserveAspectRatio="xMidYMid meet">

<g transform="translate(0.000000,578.000000) scale(0.100000,-0.100000)"
fill="#000000" stroke="none">
<path d="M2570 5748 c-209 -21 -524 -102 -759 -194 -800 -315 -1449 -1031
-1685 -1859 -80 -281 -109 -494 -109 -800 0 -322 29 -539 109 -802 191 -631
625 -1220 1162 -1574 296 -196 609 -332 947 -414 252 -61 336 -70 670 -69 263
0 316 3 430 22 438 75 812 219 1155 446 699 461 1162 1189 1277 2007 25 179
25 627 -1 794 -23 153 -87 409 -136 545 -190 531 -551 1012 -1025 1365 -385
287 -925 491 -1417 535 -127 11 -503 11 -618 -2z m686 -123 c433 -57 829 -203
1176 -435 190 -126 283 -203 453 -374 232 -233 372 -430 515 -721 90 -182 137
-304 185 -480 111 -407 124 -877 35 -1290 -102 -470 -339 -923 -671 -1281
-423 -455 -888 -713 -1539 -852 l-175 -37 -335 0 c-372 0 -425 7 -708 80 -358
94 -703 266 -1012 505 -115 89 -361 333 -454 450 -248 312 -419 654 -516 1035
-206 804 -34 1637 480 2335 110 148 346 388 495 501 396 302 801 474 1298 554
230 37 537 41 773 10z"/>
<path d="M2515 5561 c-754 -119 -1356 -474 -1792 -1058 -259 -347 -424 -731
-499 -1163 -31 -177 -43 -522 -25 -718 50 -541 307 -1118 670 -1503 306 -326
500 -474 836 -639 234 -115 491 -198 770 -247 147 -26 705 -26 850 1 585 105
1042 332 1449 717 174 165 353 387 474 590 169 281 300 661 349 1014 19 138
22 520 4 660 -60 483 -235 915 -519 1285 -357 466 -785 771 -1337 956 -274 91
-431 114 -815 120 -254 3 -312 1 -415 -15z m422 -328 c14 -33 14 -50 4 -119
-6 -45 -11 -204 -11 -362 0 -270 -1 -282 -19 -282 -28 0 -30 27 -32 405 -1
262 1 346 11 368 18 36 28 34 47 -10z m-292 -106 c14 -28 25 -61 25 -74 0 -12
25 -109 56 -215 106 -363 109 -382 72 -376 -28 4 -45 51 -119 328 -28 107 -62
219 -75 249 -23 51 -33 139 -17 154 10 11 31 -12 58 -66z m598 6 c0 -31 -7
-60 -21 -83 -11 -19 -37 -98 -57 -175 -77 -299 -125 -425 -161 -425 -26 0 -13
54 82 342 64 193 84 266 79 288 -5 24 0 39 26 75 38 53 51 48 52 -22z m-915
-26 c6 -6 13 -24 17 -38 6 -25 4 -27 -132 -74 -220 -76 -353 -139 -518 -243
-476 -304 -857 -854 -964 -1392 -37 -188 -44 -271 -44 -490 0 -229 10 -321 58
-510 203 -801 860 -1439 1672 -1626 153 -35 455 -51 681 -36 424 28 862 210
1231 512 100 82 202 188 312 325 242 300 411 705 459 1099 14 114 14 382 0
511 -41 373 -199 766 -436 1081 -128 171 -349 377 -544 509 -111 74 -396 214
-533 261 -85 29 -107 40 -103 53 3 9 8 28 12 44 3 15 10 27 14 27 30 0 269
-93 385 -149 244 -119 424 -249 626 -450 152 -153 217 -231 319 -388 540 -828
486 -1894 -136 -2669 -215 -269 -482 -483 -789 -634 -324 -159 -599 -227 -960
-237 -388 -10 -702 58 -1055 228 -308 149 -536 326 -765 592 -257 297 -426
644 -512 1047 -26 120 -27 138 -28 430 0 331 2 350 66 590 105 396 333 778
638 1073 251 243 536 415 870 528 127 42 143 45 159 26z m253 -449 c77 -116
139 -214 139 -219 0 -39 -68 54 -207 281 -89 146 -99 165 -83 155 7 -4 75
-102 151 -217z m789 155 c-59 -106 -264 -407 -268 -395 -5 17 30 75 171 285
117 174 162 225 97 110z m-1025 -284 c48 -13 287 -169 282 -184 -8 -21 -59 -4
-181 60 -116 61 -177 111 -159 129 8 8 11 8 58 -5z m1179 5 c9 -3 16 -10 16
-15 0 -28 -315 -197 -345 -185 -9 3 -14 10 -11 14 3 5 63 47 133 94 140 94
169 107 207 92z m-549 -205 c46 -13 105 -54 105 -73 0 -19 -46 -26 -175 -26
-118 0 -175 7 -175 21 0 16 73 63 118 75 60 16 78 16 127 3z m-450 -69 c-11
-5 -119 -9 -240 -9 -121 0 -229 4 -240 9 -12 5 86 9 240 9 154 0 252 -4 240
-9z m1245 0 c-34 -11 -460 -11 -485 0 -12 5 89 8 245 8 147 0 254 -4 240 -8z
m-846 -476 c3 -9 6 -88 6 -176 l0 -160 31 26 c46 39 94 56 156 56 66 0 109
-17 161 -64 59 -53 85 -123 85 -221 0 -98 -13 -148 -56 -211 -46 -69 -107 -98
-213 -102 -84 -4 -131 9 -191 53 -20 16 -22 15 -35 -12 -12 -26 -18 -28 -81
-31 l-67 -3 7 43 c4 24 7 200 8 391 0 376 4 350 -51 383 -11 6 -15 17 -11 27
5 15 23 17 126 17 99 0 120 -3 125 -16z m796 -368 l0 -384 34 -16 c67 -32 123
-16 161 44 14 22 30 40 36 40 14 0 7 -92 -10 -134 l-11 -28 -230 4 c-126 2
-233 7 -237 12 -4 4 5 19 20 32 41 35 49 105 45 434 l-3 282 -32 29 c-32 28
-40 48 -26 62 3 4 62 7 130 7 l123 0 0 -384z m-1770 264 c0 -92 -3 -112 -16
-117 -19 -7 -27 5 -51 67 -23 63 -35 70 -120 70 l-73 0 0 -326 c0 -205 4 -332
10 -345 6 -10 27 -26 46 -34 25 -10 35 -20 32 -32 -3 -16 -19 -18 -150 -21
-165 -3 -243 6 -243 27 0 8 15 19 33 25 19 7 39 21 45 31 8 14 13 124 15 356
l3 335 -73 -10 c-40 -6 -79 -15 -86 -19 -7 -5 -26 -35 -42 -67 -16 -32 -35
-62 -41 -66 -27 -16 -36 49 -23 175 l7 61 363 0 364 0 0 -110z m2487 -172 c87
-32 152 -127 153 -220 l0 -48 -195 0 -196 0 6 -37 c4 -21 19 -62 33 -92 33
-67 73 -91 152 -91 47 0 66 6 115 35 57 35 85 39 85 13 0 -21 -99 -106 -145
-124 -64 -24 -224 -16 -282 14 -104 54 -158 155 -151 282 5 85 27 137 85 201
44 48 74 65 150 83 66 16 115 12 190 -16z m-2017 -3 c95 -48 103 -71 110 -292
4 -125 9 -186 18 -195 7 -7 28 -11 47 -10 41 3 44 -6 13 -35 -37 -33 -64 -43
-118 -43 -59 0 -100 18 -124 55 l-17 26 -32 -27 c-46 -39 -89 -54 -152 -54
-69 0 -113 18 -148 59 -36 43 -43 91 -23 145 28 74 115 116 271 133 l70 8 0
72 c0 104 -37 147 -111 129 -22 -6 -24 -12 -24 -64 0 -79 -17 -102 -76 -102
-58 0 -94 32 -94 85 0 65 30 94 122 120 71 20 220 15 268 -10z m1320 -952 c0
-104 3 -225 6 -270 l7 -81 28 20 c15 11 53 50 83 85 47 55 56 71 56 104 l0 39
113 0 c61 0 118 -4 126 -9 23 -15 5 -41 -29 -41 -45 0 -98 -31 -158 -92 l-52
-54 79 -117 c99 -147 125 -178 167 -200 36 -19 44 -41 18 -51 -9 -3 -58 -6
-110 -6 -88 0 -95 2 -124 28 -17 15 -61 70 -98 122 -37 52 -74 96 -83 98 -13
2 -18 -9 -23 -48 -9 -71 1 -121 31 -147 16 -13 24 -27 20 -37 -5 -13 -25 -16
-124 -16 -161 0 -192 11 -144 52 17 15 19 41 26 364 7 325 6 349 -10 359 -46
27 -66 48 -56 58 9 9 95 18 224 25 l27 2 0 -187z m-498 -204 l3 -381 24 -19
c15 -12 39 -19 65 -19 38 0 46 5 75 40 50 63 64 54 41 -26 -11 -37 -21 -68
-22 -70 -5 -4 -421 16 -427 21 -2 3 8 18 22 33 l27 28 0 341 c0 366 1 355 -51
383 -10 6 -19 15 -19 21 0 19 46 28 152 28 l107 1 3 -381z m-914 268 c-3 -52
-9 -101 -15 -111 -9 -16 -10 -16 -24 0 -8 9 -27 42 -44 73 l-30 56 -75 0 -75
0 -3 -310 c-1 -170 0 -325 3 -343 5 -25 15 -37 47 -53 64 -32 38 -43 -113 -48
-140 -3 -239 5 -239 20 0 5 17 17 39 28 21 11 41 27 45 36 3 9 6 165 6 346 l0
329 -75 0 -75 0 -30 -61 c-34 -72 -47 -89 -66 -89 -11 0 -14 23 -14 110 l0
110 371 0 372 0 -5 -93z m419 -185 c85 -44 98 -84 109 -329 l7 -161 33 5 c30
5 34 3 34 -16 0 -77 -237 -81 -248 -3 -4 29 -7 28 -53 -11 -72 -62 -147 -72
-229 -29 -62 31 -90 74 -90 138 0 90 66 138 239 173 58 12 107 24 110 27 9 8
2 89 -9 120 -17 44 -40 64 -75 64 -43 0 -55 -16 -55 -76 0 -33 -5 -58 -15 -67
-24 -25 -70 -30 -104 -13 -89 46 -57 145 59 187 75 27 226 22 287 -9z m103
-912 c13 -48 29 -44 31 8 l2 37 6 -35 7 -35 16 35 16 35 1 -38 c1 -47 21 -46
33 1 9 32 28 45 28 18 0 -7 -13 -60 -30 -117 -16 -57 -30 -116 -30 -130 0 -15
-6 -32 -14 -38 -12 -10 -17 -8 -25 8 -6 11 -11 32 -11 48 0 15 -11 63 -25 106
-23 70 -32 137 -20 137 2 0 9 -18 15 -40z m668 -60 c170 -12 208 -24 106 -36
-91 -10 -393 -10 -422 0 -13 4 -21 13 -19 19 9 27 114 32 335 17z m-892 -11
c17 -28 -19 -34 -199 -33 -192 0 -317 10 -317 24 0 14 49 17 287 18 151 1 224
-1 229 -9z"/>
<path d="M3001 3427 c-14 -6 -34 -28 -45 -47 -18 -31 -21 -52 -21 -170 0 -159
12 -195 69 -206 44 -8 90 2 109 24 39 43 60 160 46 258 -11 80 -30 119 -69
139 -35 18 -57 19 -89 2z"/>
<path d="M4252 3445 c-23 -29 -47 -108 -39 -130 5 -12 25 -15 102 -15 l97 0
-6 30 c-3 17 -9 43 -12 60 -3 16 -14 41 -25 55 -28 35 -89 35 -117 0z"/>
<path d="M2251 3203 c-47 -24 -73 -68 -67 -117 6 -48 26 -69 67 -69 24 0 40 8
61 32 27 30 29 38 26 99 -3 63 -4 67 -28 70 -14 1 -40 -6 -59 -15z"/>
<path d="M2585 2145 c-72 -26 -101 -82 -75 -149 22 -60 109 -54 136 10 20 47
19 140 -2 148 -9 3 -16 6 -17 6 -1 -1 -20 -7 -42 -15z"/>
</g>
</svg>
